<?xml version="1.0" encoding="UTF-8"?>
<svg version="1.1" xmlns="http://www.w3.org/2000/svg" width="1536" height="1024">
<path d="M0 0 C506.88 0 1013.76 0 1536 0 C1536 337.92 1536 675.84 1536 1024 C1029.12 1024 522.24 1024 0 1024 C0 686.08 0 348.16 0 0 Z " fill="#FDFDFD" transform="translate(0,0)"/>
<path d="M0 0 C5.01791684 2.41935276 8.49958655 5.9991731 11 11 C11.59858031 16.63520603 12.12971935 22.21665605 8.8125 27.0625 C4.54218726 32.02040547 0.03649753 33.71353797 -6.3125 34.3125 C-11.61882002 33.86281186 -15.19381263 31.80618737 -19 28 C-25.93763743 28.25770305 -31.6598087 30.05914758 -38.0625 32.625 C-38.9800708 32.9854541 -39.8976416 33.3459082 -40.84301758 33.71728516 C-43.5683752 34.79642337 -46.28525044 35.89448287 -49 37 C-49.73766602 37.29712891 -50.47533203 37.59425781 -51.23535156 37.90039062 C-55.89472169 39.79249813 -60.45427705 41.85091877 -65 44 C-65.79728516 44.36319336 -66.59457031 44.72638672 -67.41601562 45.10058594 C-77.45730636 49.17883018 -77.45730636 49.17883018 -84.25 56.875 C-84.4316231 59.6598875 -84.25805031 62.22705257 -84 65 C-86.22740923 71.01400491 -89.69798719 74.74040809 -95.3125 77.8125 C-100.2442451 79.4006891 -104.54049297 79.98380281 -109.5 78 C-110.2425 77.505 -110.2425 77.505 -111 77 C-111.42889526 77.87676392 -111.42889526 77.87676392 -111.86645508 78.77124023 C-112.89087234 80.78543475 -113.98251389 82.7184244 -115.13671875 84.66015625 C-124.29206058 100.35348288 -130.39144283 115.98853379 -133 134 C-132.24074219 134.09925781 -131.48148438 134.19851563 -130.69921875 134.30078125 C-126.35206047 135.42689027 -124.46834393 138.40900567 -122 142 C-119.49921415 147.0015717 -119.65954133 151.66688943 -121 157 C-122.875 160.3125 -122.875 160.3125 -125 163 C-126.00268459 164.33131566 -127.00319265 165.66427814 -128 167 C-124.79041577 172.68019202 -121.7516528 177.52785618 -117 182 C-117 182.66 -117 183.32 -117 184 C-116.44054687 184.26167969 -115.88109375 184.52335938 -115.3046875 184.79296875 C-112.76247676 186.12439777 -110.49190965 187.69019566 -108.125 189.3125 C-85.52904138 203.71629832 -59.01314901 200.98143222 -34 196 C-35.0725 195.608125 -36.145 195.21625 -37.25 194.8125 C-38.83388554 194.20978249 -40.41714669 193.60542316 -42 193 C-42.95261719 192.64808594 -43.90523437 192.29617188 -44.88671875 191.93359375 C-58.34102146 186.71380665 -69.27157635 177.6244806 -75.16796875 164.28125 C-79.49797863 152.40929804 -77.92830123 137.37420634 -73 126 C-72.06973771 124.31750405 -71.11334489 122.64904668 -70.125 121 C-68.14864873 117.87055728 -68.14864873 117.87055728 -68.5625 114.25 C-69.036875 113.5075 -69.51125 112.765 -70 112 C-72.24390452 107.26286824 -72.95240048 103.11037117 -71.3828125 97.984375 C-69.01248115 92.48856249 -65.53317666 88.435314 -60 86 C-54.7694997 85.23121255 -49.93426413 85.14943617 -45.05078125 87.296875 C-41.88038084 88.37268109 -41.88038084 88.37268109 -38.80078125 86.359375 C-37.62608421 85.5057731 -36.46401021 84.63463189 -35.3125 83.75 C-21.0284746 73.56376262 -5.62963423 66.46041988 11 61 C12.1653125 60.61199219 13.330625 60.22398437 14.53125 59.82421875 C17.99990518 58.75471674 21.47129363 57.8511269 25 57 C25.71768555 56.81808105 26.43537109 56.63616211 27.17480469 56.44873047 C45.28682661 51.9941521 63.49288418 52.5897826 82 53 C82.28230469 52.22914063 82.56460938 51.45828125 82.85546875 50.6640625 C84.97049458 45.7410331 89.12098424 42.10684771 94 40 C99.41944759 38.94151414 103.21299099 39.74147476 107.875 42.6875 C111.24978563 45.02807713 113.22614279 47.27762888 115 51 C115.8246573 56.52000338 115.74825056 61.4480729 113.3125 66.5 C106.61620843 73.73923413 106.61620843 73.73923413 101.609375 74.23828125 C95.51883322 74.39636908 91.7259807 74.26490941 87 70 C83.85539934 66.68542093 82.74967201 64.44607461 82 60 C77.32596062 60.2159635 72.65293702 60.44670675 67.98022461 60.68969727 C66.39903359 60.77001021 64.81765109 60.84665878 63.23608398 60.91918945 C27.34925554 62.57585616 -6.31367881 73.68830656 -36 94 C-35.835 94.825 -35.67 95.65 -35.5 96.5 C-34.55632477 103.10572662 -34.11375366 108.23331189 -38 114 C-42.51792958 118.76892567 -46.84390564 121.82500655 -53.59765625 122.109375 C-56.06945682 122.12328105 -58.52993151 122.08786805 -61 122 C-67.62802031 134.31811322 -71.4045122 145.73470262 -67.8046875 159.71484375 C-64.3249508 169.5966203 -57.76960891 176.17013475 -48.7421875 181.27734375 C-46.52558725 182.33003025 -44.31669028 183.19249036 -42 184 C-41.22785156 184.28617188 -40.45570313 184.57234375 -39.66015625 184.8671875 C-28.20575135 188.57354348 -15.60823471 190.39999167 -4.60791016 184.84472656 C-1.32069921 183.00847556 1.85245959 181.06746252 5 179 C3.87464844 178.88785156 3.87464844 178.88785156 2.7265625 178.7734375 C-6.67834968 177.56524979 -14.22595221 174.74499084 -20.4375 167.3125 C-24.86740622 160.71798051 -26.89691864 152.92571872 -25.56640625 145.0546875 C-22.95508403 135.58189103 -15.62427334 129.65938776 -7.4375 124.9375 C20.49723448 109.37092986 56.96003311 101.05549431 88.625 108.8984375 C109.51419223 115.71643774 124.47273877 126.99106453 134.56640625 146.77734375 C136 150 136 150 136 153 C137.03125 153.0825 138.0625 153.165 139.125 153.25 C145.5725056 154.49790431 149.25527873 157.72965154 153 163 C155.09294386 167.18588772 154.42417949 172.4415641 154 177 C151.70861406 181.84716255 148.40839826 184.97462865 144 188 C140.125 188.8125 140.125 188.8125 137 189 C136.9175 190.0725 136.835 191.145 136.75 192.25 C134.45953055 209.32440862 124.22476794 226.51305852 112.32421875 238.71875 C110.69163472 240.36257336 110.69163472 240.36257336 109 243 C109.62810173 245.97017694 109.62810173 245.97017694 111 249 C111.47343908 254.87064456 111.03065735 259.84256556 108 265 C105.26311433 268.11531924 102.48465823 270.46704576 98.5625 271.875 C97.716875 271.91625 96.87125 271.9575 96 272 C94.741875 272.103125 93.48375 272.20625 92.1875 272.3125 C88.09440799 272.29705437 85.38488612 270.92065511 81.95703125 268.77734375 C77.68431417 267.08019665 73.1570235 269.64292478 69.16796875 271.328125 C68.04720947 271.79605469 66.9264502 272.26398438 65.77172852 272.74609375 C64.58893311 273.24238281 63.4061377 273.73867188 62.1875 274.25 C48.32320731 279.98097946 34.62707076 284.59255738 20 288 C19.98582031 288.58007812 19.97164062 289.16015625 19.95703125 289.7578125 C19.58336611 295.87784147 18.39479412 298.70984384 14 303 C9.252842 306.164772 4.64818685 306.4786599 -1 306 C-6.65277543 304.30955097 -10.31453302 301.45928992 -13.1484375 296.2734375 C-14.99967892 291.33113242 -15.03421238 286.65159297 -13.11328125 281.7265625 C-10.31508816 276.72514097 -7.28914845 274.15151801 -2 272 C3.64020094 271.03215487 7.94193073 272.32781246 13 275 C13.845625 275.7425 14.69125 276.485 15.5625 277.25 C17.88075413 279.32392173 17.88075413 279.32392173 20.77734375 278.70703125 C37.92866933 274.94413436 54.98811725 268.78071716 70.734375 261.03125 C73 260 73 260 75 260 C74.67 259.34 74.34 258.68 74 258 C73.62623704 252.39355557 73.74481423 248.78105411 77 244 C82.44870173 238.50589243 85.94082921 235.90680203 93.890625 235.86328125 C96 236 96 236 99.5 237.0625 C102.92572693 237.3408562 102.92572693 237.3408562 104.8984375 235.58984375 C115.17654 224.72268003 129 203.22072507 129 188 C128.0925 187.4225 127.185 186.845 126.25 186.25 C122.47644934 183.63754185 120.36396698 181.34058001 119 177 C118.13883254 171.59875768 117.5265034 166.33739944 120.5390625 161.55859375 C122.4375 159.5 122.4375 159.5 124.37109375 157.78125 C126.46681117 155.48953023 126.84703288 154.09178998 127 151 C122.59991011 138.54583253 112.46816848 128.9701488 101 123 C79.39881594 112.75782446 51.8915541 113.50602701 29 119 C29.75023437 119.17015625 30.50046875 119.3403125 31.2734375 119.515625 C46.167436 123.04216369 60.09636466 128.7948681 69 142 C75.09175957 152.21493525 75.66101012 163.29968609 73.1953125 174.73046875 C71.8237819 179.3500815 70.19337222 183.68266759 68.0625 188 C67.711875 188.99 67.36125 189.98 67 191 C67.97934924 192.67888441 68.98343919 194.34338239 70 196 C70.76708628 202.16510088 70.72871945 207.82790527 67 213 C62.11560443 217.7939438 59.09126815 220.14203244 52.125 220.125 C51.07570313 220.12757813 50.02640625 220.13015625 48.9453125 220.1328125 C46 220 46 220 43.96484375 219.2265625 C41.764693 218.75892178 41.764693 218.75892178 39.43359375 220.703125 C38.44488281 221.54359375 37.45617187 222.3840625 36.4375 223.25 C23.1438791 234.03651596 7.77262914 241.55197928 -8 248 C-8.67627441 248.28214355 -9.35254883 248.56428711 -10.04931641 248.85498047 C-19.78281444 252.8846819 -29.51688665 255.54106611 -39.84765625 257.56201172 C-41.83519518 257.96646327 -43.80929771 258.43550245 -45.78125 258.91015625 C-58.42632086 261.7659233 -71.1048035 261.28783921 -84 261 C-84.28359375 261.76957031 -84.5671875 262.53914063 -84.859375 263.33203125 C-86.75345891 267.76237135 -89.51429639 270.32174401 -93.875 272.3125 C-100.39793109 273.74754484 -105.12061592 273.26632449 -111 270 C-114.52472799 266.67512772 -116.76684486 263.43475123 -117.23828125 258.51171875 C-117.39748922 252.45343647 -117.2418563 248.70043536 -113 244 C-108.19729119 239.66584815 -104.5850814 238.68062557 -98.2734375 238.79296875 C-92.26863123 239.33979819 -88.90568237 242.81361826 -85.1015625 247.0859375 C-83.70617835 249.51054117 -83.92030613 251.24462692 -84 254 C-40.96393205 250.5548836 0.41610448 241.52595766 35 214 C34.835 212.865625 34.67 211.73125 34.5 210.5625 C33.10416667 198.79166667 33.10416667 198.79166667 35.625 193.75 C38.65466463 190.24196728 41.80491445 187.09754277 46 185 C47.97724061 184.90327168 49.9579006 184.87020097 51.9375 184.875 C52.99839844 184.87242187 54.05929687 184.86984375 55.15234375 184.8671875 C58 185 58 185 61 186 C61.1546875 185.01 61.1546875 185.01 61.3125 184 C62 181 62 181 63.515625 177.37109375 C65.21514152 172.88584575 65.50148769 168.82653592 65.4375 164.0625 C65.42614014 162.87563599 65.42614014 162.87563599 65.41455078 161.66479492 C65.24664252 155.72121033 64.43477619 150.98042547 61 146 C60.38125 145.071875 60.38125 145.071875 59.75 144.125 C51.25444834 132.92631827 36.87997885 129.25188084 23.6875 127.1875 C22.82721191 127.05126221 21.96692383 126.91502441 21.08056641 126.7746582 C13.14647156 125.64552197 7.90665838 126.73907419 0.8125 130.5625 C-5.61179061 134 -5.61179061 134 -9 134 C-9 134.66 -9 135.32 -9 136 C-8.41734375 135.93039062 -7.8346875 135.86078125 -7.234375 135.7890625 C1.47120118 135.21416596 8.6514061 138.1969011 15.2109375 143.93359375 C21.62049397 150.87051879 23.67779595 157.45398239 23.3984375 166.85546875 C22.38571312 174.84804843 16.80276784 179.73009362 10.8984375 184.77734375 C-11.1032288 201.6492415 -39.76007296 208.38724453 -67 208.5625 C-67.6863855 208.57144287 -68.372771 208.58038574 -69.07995605 208.58959961 C-89.33711971 208.76689988 -108.26358187 202.12749535 -123.48046875 188.51416016 C-128.4727969 183.53947841 -134.94721911 176.12381733 -136 169 C-137.485 169.1546875 -137.485 169.1546875 -139 169.3125 C-143.9050475 169.3125 -147.25135318 166.9727831 -151 164 C-155.19394707 159.6956859 -156.61336876 155.56143195 -157.5 149.6875 C-156.71166248 143.87351081 -153.77574035 139.19014112 -149.1484375 135.5390625 C-146.31361536 133.83816921 -144.3290862 133 -141 133 C-140.99613281 132.15695312 -140.99613281 132.15695312 -140.9921875 131.296875 C-140.06599606 111.1676476 -130.59120296 89.49686518 -118 74 C-118.13430839 71.24667801 -118.67446434 69.55532554 -120.0625 67.1875 C-121.81080891 63.10811254 -121.58641693 59.1016553 -120.41796875 54.9140625 C-117.94893441 49.02896696 -113.82781179 45.49893651 -108 43 C-101.7833664 41.75090824 -97.12449064 42.84361359 -91.88671875 46.3203125 C-89.09372953 47.32648253 -87.66004401 46.19114078 -85 45 C-83.46420729 44.2124439 -81.94099066 43.39999285 -80.4296875 42.56640625 C-64.82468779 34.10634439 -48.70478062 26.4949334 -31.8059082 20.95239258 C-30.80906006 20.62392334 -29.81221191 20.2954541 -28.78515625 19.95703125 C-27.44916382 19.54287964 -27.44916382 19.54287964 -26.08618164 19.12036133 C-23.81736379 18.17745611 -23.81736379 18.17745611 -23.06005859 15.86938477 C-22.80248391 14.36090184 -22.59964564 12.84242477 -22.44140625 11.3203125 C-21.67945636 7.31501837 -19.02277626 4.6105795 -16 2 C-11.14448788 -1.10213274 -5.54618919 -0.60220017 0 0 Z " fill="#20A3CE" transform="translate(760,249)"/>
<path d="M0 0 C3.7447844 2.96548304 5.95289842 6.47210053 8.12109375 10.6796875 C8.46011719 11.27265625 8.79914062 11.865625 9.1484375 12.4765625 C13.16840164 20.84994403 12.11293755 32.50372667 9.55859375 41.1796875 C6.46414928 49.17095461 1.75122795 54.49464765 -6.08203125 57.98828125 C-13.03801004 60.66482091 -18.70792737 60.0342901 -25.60546875 57.7265625 C-28.53974133 56.37538544 -31.19103155 54.47160397 -33.87890625 52.6796875 C-34.20890625 61.9196875 -34.53890625 71.1596875 -34.87890625 80.6796875 C-39.82890625 80.6796875 -44.77890625 80.6796875 -49.87890625 80.6796875 C-49.87890625 53.2896875 -49.87890625 25.8996875 -49.87890625 -2.3203125 C-45.58890625 -2.3203125 -41.29890625 -2.3203125 -36.87890625 -2.3203125 C-36.21890625 -0.0103125 -35.55890625 2.2996875 -34.87890625 4.6796875 C-34.03328125 3.9165625 -33.18765625 3.1534375 -32.31640625 2.3671875 C-23.05517319 -5.16157471 -10.44427454 -6.07105614 0 0 Z " fill="#11153B" transform="translate(671.87890625,634.3203125)"/>
<path d="M0 0 C5.31102556 3.94953864 8.0116998 8.96403413 9.69140625 15.2578125 C10.06455346 18.66333409 10.04330383 22.02280278 9.984375 25.4453125 C9.98013016 26.38842285 9.97588531 27.3315332 9.97151184 28.30322266 C9.95484195 31.28838768 9.917212 34.27285468 9.87890625 37.2578125 C9.86384429 39.29295894 9.85015854 41.32811605 9.83789062 43.36328125 C9.8049768 48.3283902 9.75327624 53.29298337 9.69140625 58.2578125 C5.07140625 58.2578125 0.45140625 58.2578125 -4.30859375 58.2578125 C-4.30859375 56.2778125 -4.30859375 54.2978125 -4.30859375 52.2578125 C-5.27796875 53.0209375 -6.24734375 53.7840625 -7.24609375 54.5703125 C-13.33840996 58.90262625 -19.80750166 60.95235806 -27.30859375 60.2578125 C-32.91218912 59.1764169 -36.30933341 57.34796512 -40.30859375 53.2578125 C-43.30739282 48.05989411 -44.27684328 43.15337628 -43.30859375 37.2578125 C-39.4334098 29.65096992 -33.87116359 26.73226813 -26.07421875 24.07421875 C-19.23500482 22.05529825 -12.38879172 22.12723508 -5.30859375 22.2578125 C-5.90596104 17.4376764 -6.37430065 14.16986053 -9.93359375 10.6953125 C-16.77821238 7.78001197 -22.22445029 9.26670152 -29.01171875 11.50390625 C-31.09735012 12.18847573 -33.17330971 12.75337613 -35.30859375 13.2578125 C-36.1473783 11.96967908 -36.97946158 10.67717994 -37.80859375 9.3828125 C-38.27265625 8.66351562 -38.73671875 7.94421875 -39.21484375 7.203125 C-40.30859375 5.2578125 -40.30859375 5.2578125 -40.30859375 3.2578125 C-39.12538799 2.62472059 -37.93671527 2.00184532 -36.74609375 1.3828125 C-36.08480469 1.03476562 -35.42351563 0.68671875 -34.7421875 0.328125 C-24.81486236 -4.0379859 -9.80814255 -5.48948879 0 0 Z " fill="#11163C" transform="translate(904.30859375,633.7421875)"/>
<path d="M0 0 C6.41487902 4.74508841 9.32203117 9.80137985 11.0859375 17.54296875 C11.0859375 22.16296875 11.0859375 26.78296875 11.0859375 31.54296875 C-2.4440625 31.54296875 -15.9740625 31.54296875 -29.9140625 31.54296875 C-27.23905156 40.4654139 -27.23905156 40.4654139 -20.9140625 45.54296875 C-13.83404994 47.90297294 -6.61390161 46.90908134 0.2109375 44.19921875 C2.0859375 43.54296875 2.0859375 43.54296875 5.0859375 43.54296875 C9.0859375 50.16796875 9.0859375 50.16796875 9.0859375 53.54296875 C-2.529145 59.19948647 -14.33754628 61.82481295 -26.9140625 57.54296875 C-34.77661124 53.92648916 -41.06075151 47.62562464 -44.32299805 39.56835938 C-45.46037302 35.67093568 -45.44407635 31.76486207 -45.4140625 27.73046875 C-45.40834229 26.84335205 -45.40262207 25.95623535 -45.39672852 25.04223633 C-45.21072734 18.2303348 -44.19070698 13.0244547 -39.9140625 7.54296875 C-39.40617188 6.88167969 -38.89828125 6.22039063 -38.375 5.5390625 C-28.97359423 -5.1322014 -12.14304866 -7.20111025 0 0 Z " fill="#11153A" transform="translate(811.9140625,634.45703125)"/>
<path d="M0 0 C5.28 0 10.56 0 16 0 C19.66675097 8.95328028 22.96097749 18.02836937 26.25 27.125 C26.80974503 28.6693255 27.36963973 30.21359676 27.9296875 31.7578125 C29.28818348 35.50458568 30.64465619 39.25208548 32 43 C32.30196289 41.95062256 32.60392578 40.90124512 32.91503906 39.82006836 C35.55716075 30.66955196 38.36135818 21.57571255 41.25 12.5 C41.60320313 11.38375244 41.95640625 10.26750488 42.3203125 9.11743164 C42.65289063 8.0783667 42.98546875 7.03930176 43.328125 5.96875 C43.6262207 5.03482422 43.92431641 4.10089844 44.23144531 3.13867188 C45 1 45 1 46 0 C48.53049402 -0.07313567 51.03304837 -0.09247527 53.5625 -0.0625 C54.62887695 -0.05573242 54.62887695 -0.05573242 55.71679688 -0.04882812 C57.47790013 -0.03700864 59.23896036 -0.01907263 61 0 C60.24397994 4.97308605 58.44189205 9.50573998 56.68359375 14.19140625 C56.34884537 15.09132797 56.01409698 15.99124969 55.66920471 16.91844177 C54.9573054 18.82968525 54.24354882 20.74023781 53.52807617 22.65014648 C52.46135788 25.49878819 51.40106541 28.34975292 50.34179688 31.20117188 C48.59951525 35.88034812 46.83647497 40.55127038 45.05877686 45.21710205 C44.35049234 47.07876299 43.64596598 48.94185791 42.94512939 50.80633545 C41.92580204 53.51024978 40.88909998 56.20688224 39.84765625 58.90234375 C39.54903183 59.70249405 39.25040741 60.50264435 38.94273376 61.32704163 C35.58414759 69.89808183 30.18483789 78.00129072 21.6796875 82.125 C18.68977841 83.10129685 16.32317288 83.20055838 13.1875 83.125 C12.21167969 83.10695313 11.23585938 83.08890625 10.23046875 83.0703125 C9.49441406 83.04710937 8.75835938 83.02390625 8 83 C8 79.7 8 76.4 8 73 C9.546875 72.46375 11.09375 71.9275 12.6875 71.375 C17.71758766 69.33152689 20.33447867 67.77955548 23 63 C22.67461289 57.49446438 21.51527789 53.14305141 19.375 48.02734375 C18.98032784 47.07106834 18.98032784 47.07106834 18.5776825 46.09547424 C17.72711418 44.03909651 16.8635492 41.98845552 16 39.9375 C15.11277276 37.79991992 14.22910592 35.66089056 13.34562683 33.52175903 C12.75347837 32.08858386 12.1602274 30.65586371 11.56587219 29.22360229 C8.85417273 22.68187012 6.25217855 16.10086792 3.6875 9.5 C3.30916016 8.52796631 2.93082031 7.55593262 2.54101562 6.55444336 C1.69211094 4.37036624 0.84571639 2.18531366 0 0 Z " fill="#12163B" transform="translate(918,632)"/>
<path d="M0 0 C2.32421875 2.140625 2.32421875 2.140625 4 4 C2.02 6.64 0.04 9.28 -2 12 C-4.21354167 11.25130208 -6.42708333 10.50260417 -8.640625 9.75390625 C-12.6963566 8.45795228 -16.22013466 7.82054723 -20.5 7.75 C-21.4384375 7.72421875 -22.376875 7.6984375 -23.34375 7.671875 C-26.40162546 8.04961256 -27.73418595 8.9693176 -30 11 C-29.67 12.98 -29.34 14.96 -29 17 C-28.20078125 17.24234375 -27.4015625 17.4846875 -26.578125 17.734375 C-23.04846838 18.81150026 -19.52389457 19.90417762 -16 21 C-14.35451172 21.50273438 -14.35451172 21.50273438 -12.67578125 22.015625 C-6.09306185 24.09698672 -0.78699671 25.84140373 3.875 31.125 C5.97403781 36.48920774 5.71300043 41.81905751 3.9375 47.25 C-0.85936212 54.05844945 -6.11622579 57.06081265 -14.25 58.625 C-26.96845359 59.89684536 -37.08109786 57.82094381 -48 51 C-46.47639094 47.89978679 -44.80178638 44.94837771 -43 42 C-39.33521818 42.627305 -36.1302659 43.67243967 -32.6875 45.0625 C-26.38052487 47.38211233 -21.45982614 48.1837168 -15.0625 45.5625 C-12.19522563 44.29806053 -12.19522563 44.29806053 -11 43 C-10.49940084 40.58517587 -10.49940084 40.58517587 -11 38 C-14.89419432 35.04578362 -19.06438589 34.12567711 -23.75 33.125 C-32.31254475 31.13038265 -39.97554525 28.7460344 -45 21 C-46.7594436 17.4811128 -46.52761697 13.84056076 -46 10 C-43.56864876 3.61486262 -39.10454204 -0.17224991 -33 -3 C-23.16068574 -6.43385464 -9.02903934 -4.72602382 0 0 Z " fill="#12163C" transform="translate(605,635)"/>
<path d="M0 0 C4.95 0 9.9 0 15 0 C15 28.38 15 56.76 15 86 C10.05 86 5.1 86 0 86 C0 57.62 0 29.24 0 0 Z " fill="#10143A" transform="translate(835,606)"/>
<path d="M0 0 C0 4.29 0 8.58 0 13 C-2.536875 13.12375 -2.536875 13.12375 -5.125 13.25 C-11.35753478 13.82604943 -14.67047318 15.70504623 -19.12207031 20.09057617 C-21.68002478 24.05354334 -21.60232104 27.17676333 -21.609375 31.80078125 C-21.62591125 32.63715622 -21.64244751 33.47353119 -21.65948486 34.33525085 C-21.7078894 36.99440916 -21.72931844 39.65299592 -21.75 42.3125 C-21.77816609 44.12047135 -21.80809441 45.92841615 -21.83984375 47.73632812 C-21.91364605 52.15750501 -21.96326652 56.57836603 -22 61 C-26.95 61 -31.9 61 -37 61 C-37 41.2 -37 21.4 -37 1 C-32.38 1 -27.76 1 -23 1 C-22.67 3.64 -22.34 6.28 -22 9 C-21.54109375 8.51789062 -21.0821875 8.03578125 -20.609375 7.5390625 C-19.99578125 6.90742187 -19.3821875 6.27578125 -18.75 5.625 C-18.14671875 4.99851562 -17.5434375 4.37203125 -16.921875 3.7265625 C-11.66621614 -0.99498469 -6.80572374 -0.16204104 0 0 Z " fill="#0F1339" transform="translate(763,631)"/>
<path d="M0 0 C4.92506351 4.56469301 6.42504151 9.62583022 6.75 16.125 C6.65906106 22.22927612 5.54946282 28.59064461 1.5625 33.375 C-3.21370814 36.67079974 -7.58648278 38.22605705 -13.4375 37.375 C-18.28336533 35.46323456 -21.70521374 32.87042824 -24.4375 28.375 C-25.04737413 24.88535191 -25.04153127 21.47254416 -25 17.9375 C-25.02384766 17.00873047 -25.04769531 16.07996094 -25.07226562 15.12304688 C-25.06270463 10.64531374 -24.96121236 7.39321437 -22.0703125 3.83203125 C-15.62820257 -2.17996748 -8.0739013 -3.81675334 0 0 Z " fill="#F9F9FA" transform="translate(661.4375,644.625)"/>
<path d="M0 0 C4.62 0 9.24 0 14 0 C14 19.8 14 39.6 14 60 C9.38 60 4.76 60 0 60 C0 40.2 0 20.4 0 0 Z " fill="#0C0F34" transform="translate(696,632)"/>
<path d="M0 0 C3.24168949 1.62084474 5.19736744 2.94198435 7.375 5.8125 C8 8 8 8 8 15 C-1.24 15 -10.48 15 -20 15 C-16.58823529 4.76470588 -16.58823529 4.76470588 -12 1 C-8.28986322 -0.85506839 -4.04907177 -0.45334699 0 0 Z " fill="#F0F0F3" transform="translate(801,642)"/>
<path d="M0 0 C0.90888858 9.61065517 0.90888858 9.61065517 -1.16015625 12.7734375 C-5.02669146 16.03675366 -9.02335184 17.79409915 -14 18.3125 C-17.42885276 17.95532784 -19.25009392 17.04278737 -22 15 C-23.44430855 12.11138291 -23.37688506 10.20352299 -23 7 C-17.12393641 -0.83475146 -8.94648672 -0.29120572 0 0 Z " fill="#F6F6F8" transform="translate(899,665)"/>
<path d="M0 0 C3.59652729 1.13224007 5.0679775 2.13435605 7.375 5.0625 C8.80162219 7.91574437 8.68533868 9.89704549 8.375 13.0625 C6.57506226 15.76240662 5.291227 17.6043865 2.375 19.0625 C-2.26054388 19.47454834 -4.92916098 18.93704146 -8.625 16.0625 C-10.67930581 13.44792897 -10.625 11.99895571 -10.625 8.625 C-9.01029574 2.87261607 -6.0558091 0.1044105 0 0 Z " fill="#F4F9FB" transform="translate(707.625,342.9375)"/>
<path d="M0 0 C4.32818451 0.77289009 5.73745486 2.29369557 8.5 5.625 C8.83 5.955 9.16 6.285 9.5 6.625 C9.2682359 13.69380497 9.2682359 13.69380497 6.4375 17.125 C2.64562858 19.06127477 -0.33457509 19.7229289 -4.5 18.625 C-7.5625 16.0625 -7.5625 16.0625 -9.5 12.625 C-9.65459256 8.2191121 -8.9553274 6.25442317 -6.375 2.6875 C-3.5 0.625 -3.5 0.625 0 0 Z " fill="#F7FBFC" transform="translate(852.5,493.375)"/>
<path d="M0 0 C4.04224862 0.34385858 6.32851887 1.46779502 9 4.625 C10.14009771 8.54408586 10.40888632 10.65658504 8.8125 14.4375 C6.09160536 17.72133835 4.26812841 18.46311127 0.0625 19 C-3.7368243 18.53477662 -5.28638434 17.26108379 -8 14.625 C-9.45147903 11.72204195 -9.37239025 9.85238221 -9 6.625 C-6.59221978 2.56187088 -4.78704154 0.25385826 0 0 Z " fill="#F5FAFB" transform="translate(896,410.375)"/>
<path d="M0 0 C2.42435951 0.65203893 3.55408142 1.34654806 5.2890625 3.14453125 C7.1640625 6.58203125 7.1640625 6.58203125 7.2890625 10.14453125 C5.93648176 14.27741683 4.69827278 16.04661953 1.1640625 18.58203125 C-2.3359375 19.20703125 -2.3359375 19.20703125 -5.8359375 18.58203125 C-9.37014778 16.04661953 -10.60835676 14.27741683 -11.9609375 10.14453125 C-11.8296506 6.40285463 -11.19439873 4.42278297 -8.5625 1.6953125 C-5.74876085 -0.11897632 -3.28893846 -0.23649557 0 0 Z " fill="#F5F8FB" transform="translate(659.8359375,300.41796875)"/>
<path d="M0 0 C2.42435951 0.65203893 3.55408142 1.34654806 5.2890625 3.14453125 C7.1640625 6.58203125 7.1640625 6.58203125 7.3515625 10.14453125 C5.82615824 14.56017517 4.10786731 16.12645467 0.1640625 18.58203125 C-2.8984375 19.20703125 -2.8984375 19.20703125 -5.8359375 18.58203125 C-9.31215606 16.03280431 -10.61846815 14.24652094 -11.9609375 10.14453125 C-11.8296506 6.40285463 -11.19439873 4.42278297 -8.5625 1.6953125 C-5.74876085 -0.11897632 -3.28893846 -0.23649557 0 0 Z " fill="#F7FAFC" transform="translate(623.8359375,390.41796875)"/>
<path d="M0 0 C2.69990662 1.79993774 4.5418865 3.083773 6 6 C6.48153012 10.2535161 6.44716755 12.3220363 4.0625 15.9375 C0.47487333 18.35365674 -1.65704919 18.7425028 -5.90625 18.48046875 C-8 18 -8 18 -10.5625 15.9375 C-12.36478899 12.25456163 -12.57957768 10.05704375 -12 6 C-8.59923278 0.78549026 -6.21541624 -0.60935453 0 0 Z " fill="#F7FBFC" transform="translate(815,442)"/>
<path d="M0 0 C3.50368509 2.43112843 4.75445216 3.82137038 5.625 8 C4.80352072 11.94310054 3.01509365 13.42613957 0 16 C-0.33 16.33 -0.66 16.66 -1 17 C-5.07781583 17.56899756 -6.78957342 17.12469723 -10.375 15 C-13.43861829 11.49872195 -13.43861829 11.49872195 -13.625 7.9375 C-13 4 -13 4 -11.5625 1.5 C-7.73473876 -0.74064073 -4.32011646 -0.8840096 0 0 Z " fill="#14183C" transform="translate(707,605)"/>
<path d="M0 0 C0.66 0.33 1.32 0.66 2 1 C1.24203125 1.62261719 1.24203125 1.62261719 0.46875 2.2578125 C-3.02430513 5.57067034 -4.84248715 7.76372266 -5.46484375 12.6484375 C-5.44018037 16.12245125 -5.30615143 19.54000285 -5 23 C-7.74209895 19.71239064 -8.52733413 17.53863138 -8.35546875 13.16015625 C-7.55503503 8.2959821 -5.4200865 4.26229911 -1.75 1 C-1.1725 0.67 -0.595 0.34 0 0 Z " fill="#2C6EC5" transform="translate(647,295)"/>
<path d="M0 0 C-1.11247383 2.50306612 -2.13342034 4.13746338 -4.0625 6.125 C-6.81990009 10.21662593 -6.81204036 14.1600392 -7 19 C-7.66 18.67 -8.32 18.34 -9 18 C-9.50220958 11.72238025 -9.20069234 8.0408308 -5 3 C-2.4 0 -2.4 0 0 0 Z " fill="#292D4E" transform="translate(870,662)"/>
<path d="M0 0 C-1.299375 0.5259375 -1.299375 0.5259375 -2.625 1.0625 C-7.90246033 4.09215315 -11.66504896 8.000839 -13.375 13.9375 C-13.58125 14.948125 -13.7875 15.95875 -14 17 C-14.33 17 -14.66 17 -15 17 C-14.97167215 10.75370915 -13.92230966 7.03634187 -9.66796875 2.41015625 C-6.36142657 -0.38530447 -4.17380025 -1.49064294 0 0 Z " fill="#1D66D1" transform="translate(752,250)"/>
<path d="M0 0 C0.33 0 0.66 0 1 0 C1.33 4.29 1.66 8.58 2 13 C-0.475 14.485 -0.475 14.485 -3 16 C-3.99 15.67 -4.98 15.34 -6 15 C-4.02 14.34 -2.04 13.68 0 13 C-0.33 12.34 -0.66 11.68 -1 11 C-1.23188406 3.69565217 -1.23188406 3.69565217 0 0 Z " fill="#40CACF" transform="translate(835,496)"/>
<path d="M0 0 C0.66 0.33 1.32 0.66 2 1 C-0.64 3.97 -3.28 6.94 -6 10 C-6.33 9.34 -6.66 8.68 -7 8 C-3.375 2.25 -3.375 2.25 0 0 Z " fill="#2067C8" transform="translate(647,295)"/>
<path d="M0 0 C0.66 0.33 1.32 0.66 2 1 C-0.31 3.64 -2.62 6.28 -5 9 C-5.33 8.01 -5.66 7.02 -6 6 C-2.83636364 1.41818182 -2.83636364 1.41818182 0 0 Z " fill="#1D85CD" transform="translate(612,384)"/>
<path d="M0 0 C0.66 0 1.32 0 2 0 C1.82374165 2.37948772 1.30280227 3.70225849 -0.40234375 5.37890625 C-1.90649092 6.62115486 -3.45129851 7.81376056 -5 9 C-3.50079488 5.88626628 -1.91847864 2.87771795 0 0 Z " fill="#202444" transform="translate(562,677)"/>
<path d="M0 0 C0.33 0 0.66 0 1 0 C0.38461538 7.50769231 0.38461538 7.50769231 -1.5625 10 C-2.036875 10.33 -2.51125 10.66 -3 11 C-2.32829194 7.1936543 -1.27253436 3.64793184 0 0 Z " fill="#2DC9C9" transform="translate(779,538)"/>
<path d="M0 0 C-3.44069624 2.29379749 -4.72290301 3 -9 3 C-9 2.34 -9 1.68 -9 1 C-5.57367167 -0.61798838 -3.61944899 -1.34053666 0 0 Z " fill="#2669D5" transform="translate(716,277)"/>
</svg>
